<svg width="400" height="320" viewBox="0 0 400 320" fill="none" xmlns="http://www.w3.org/2000/svg">
  <rect width="400" height="320" fill="#E5E7EB"/>
  <path d="M200 160C200 171.046 191.046 180 180 180C168.954 180 160 171.046 160 160C160 148.954 168.954 140 180 140C191.046 140 200 148.954 200 160Z" fill="#9CA3AF"/>
  <path fill-rule="evenodd" clip-rule="evenodd" d="M180 200C157.909 200 140 182.091 140 160C140 137.909 157.909 120 180 120C202.091 120 220 137.909 220 160C220 182.091 202.091 200 180 200ZM180 190C196.569 190 210 176.569 210 160C210 143.431 196.569 130 180 130C163.431 130 150 143.431 150 160C150 176.569 163.431 190 180 190Z" fill="#9CA3AF"/>
</svg> 